<?xml version="1.0" encoding="utf-8"?>
<!-- Generator: Adobe Illustrator 19.2.1, SVG Export Plug-In . SVG Version: 6.00 Build 0)  -->
<svg version="1.1" id="layer" xmlns="http://www.w3.org/2000/svg" xmlns:xlink="http://www.w3.org/1999/xlink" x="0px" y="0px"
	 viewBox="0 0 652 652" style="enable-background:new 0 0 652 652;" xml:space="preserve">
<style type="text/css">
	.st0{fill:#154273;}
	.st1{fill:#FFFFFF;}
</style>
<g id="Laag_1_1_">
	<g>
		<rect x="-43.8" y="71" class="st0" width="250" height="500"/>
	</g>
	<path class="st1" d="M85.7,457.8h-4.4v-12h4.4V457.8z M105.3,404.6H101v-12.1h4.4V404.6z M24.7,383.8c-0.3,0-2.6,0-2.6,0.4
		c0,0.5,1.1,0.3,2.6,0.5c3.5,0.6,4.9,2.4,7.3,2.4c2.2,0,4.5-1.5,3.6-4.7c-0.1-0.6-0.4-0.4-0.5,0c-0.3,1.4-2.1,2.3-4,2.3
		C28.8,384.6,28.4,383.8,24.7,383.8z M0.8,395.9c0.4,0.6,4.5,5.9-1.8,7.9c-0.3,0.1-0.3,0.4,0.1,0.6c4.7,1.9,6.9-1.6,6.9-1.6
		c2.3,5.4-1.3,8.3-1.3,8.3c0.5,1,2.8,2.6,6.1,3.3c1.3-0.7,3.1-2,3.9-4c0,0,0.9,2.4,0.1,4.6c9.5,0.9,12.8-6.7,20.2-5.3
		c0.2,0,0.3-0.1,0.3-0.3c0-4.7-2.8-13.3-12-15c-9.1-1.8-6.6-5.5-6.6-5.5c3.8-0.1,6,1.5,6,1.5c0.7-1.1-0.3-2.4-0.3-2.4
		c0.3-0.5,0.5-2,0.5-2c-4.3,0-5.4-1-5.4-1c-0.7-2.5,1.1-6.1,7.5-2.3c1.6-1.4,1.5-3.6,1.5-3.6c0.5-0.3,0.8-1,0.8-1.3
		c0-1-5.1-3.9-6.4-4.3c-0.3-1.5-2.3-3.8-8.3-2.9c-2.8,0.3-4.9-0.4-3.9-2.1c0.1-0.3-0.3-0.3-0.6,0c-0.7,0.7-1.6,2.5,0.9,3.8
		c2.8,1.4,2.9,4.2,3,4.5c0.1,0.6-0.7,0.7-0.8,0.1c-1.3-4.7-7.6-5.7-11.4-3.2c0.2,2.5,2.9,4.2,4.3,4.2c0.9,0,2-0.9,2-2
		c0-0.5,0.3-0.5,0.5,0c0.6,1.7-1.8,5.1-5.5,3c-3.7,3.7-2.2,8.3-1.8,10c0.7,3-0.8,5.9-3.6,4.6c-0.2-0.1-0.3-0.1-0.3,0.2
		C-4.6,395.4-2.2,397.5,0.8,395.9z M21.2,377.2c-1.8,1.9-4.5,1.5-5.3-1.7C19.5,375.3,21,375.6,21.2,377.2z M131.5,384.6
		c-1.9,0-3.6-0.8-4-2.3c-0.1-0.4-0.4-0.5-0.6,0c-0.9,3.2,1.4,4.7,3.6,4.7c2.5,0,3.8-1.7,7.3-2.4c1.6-0.2,2.6,0,2.6-0.5
		c0-0.5-2.3-0.5-2.6-0.5C134.3,383.8,133.8,384.6,131.5,384.6z M167.3,393.4c0-0.3-0.1-0.3-0.3-0.2c-2.8,1.3-4.2-1.5-3.6-4.6
		c0.4-1.7,1.9-6.3-1.8-10c-3.6,2.1-6.1-1.4-5.4-3c0.1-0.4,0.4-0.5,0.4,0.1c0,1.1,1.2,2,2,2c1.4,0,4.2-1.7,4.3-4.2
		c-3.8-2.5-10.1-1.5-11.4,3.2c-0.1,0.6-0.8,0.5-0.8,0c0-0.4,0.2-3.2,3-4.6c2.5-1.3,1.6-3.1,0.9-3.8c-0.3-0.3-0.8-0.2-0.6,0
		c0.9,1.7-1.1,2.4-3.9,2.1c-6-0.8-7.9,1.5-8.3,2.9c-1.3,0.4-6.4,3.2-6.4,4.3c0,0.3,0.3,1.1,0.8,1.3c0,0-0.1,2.1,1.4,3.6
		c6.4-3.9,8.2-0.3,7.5,2.3c0,0-1.1,0.9-5.4,1c0,0,0.2,1.5,0.6,2c0,0-1,1.3-0.3,2.4c0,0,2.2-1.6,6-1.5c0,0,2.5,3.7-6.6,5.4
		c-9.1,1.8-12,10.3-12,15c0,0.3,0.1,0.4,0.3,0.3c7.4-1.3,10.7,6.3,20.2,5.4c-0.8-2.2,0.1-4.6,0.1-4.6c0.8,2,2.5,3.4,3.9,4
		c3.4-0.8,5.6-2.4,6.1-3.4c0,0-3.6-2.9-1.3-8.3c0,0,2.3,3.6,6.9,1.7c0.4-0.2,0.3-0.5,0-0.6c-6.3-2.1-2.2-7.4-1.8-7.9
		C164.8,397.5,167.3,395.4,167.3,393.4z M146.7,375.5c-0.7,3.2-3.5,3.6-5.3,1.7C141.6,375.6,143.2,375.3,146.7,375.5z M79.7,322
		c0,0.8,0.4,1.5,0.6,1.9c0.6,0.8,0.5,1.3,0.2,1.5c-0.2,0.2-0.7,0.3-1.5-0.2c-0.4-0.3-1.1-0.6-1.9-0.6c-1.4,0-2.1,0.9-2.1,1.7
		c0,0.8,0.7,1.6,2.1,1.6c0.8,0,1.5-0.4,1.9-0.6c0.8-0.6,1.3-0.5,1.5-0.2c0.3,0.3-0.1,3-0.4,5.2c-2.3,0.5-3.3,2.3-3.3,3.3
		c0,2.8,2.9,4.3,4.6,5.3c1.7-0.9,4.7-2.5,4.7-5.3c0-1-1.1-2.9-3.4-3.3c-0.3-2.2-0.7-5-0.4-5.2c0.2-0.3,0.7-0.4,1.5,0.2
		c0.4,0.3,1.1,0.6,1.9,0.6c1.3,0,2-0.9,2-1.6c0-0.8-0.7-1.7-2-1.7c-0.8,0-1.5,0.4-1.9,0.6c-0.8,0.5-1.3,0.4-1.5,0.2
		c-0.3-0.3-0.3-0.7,0.2-1.5c0.3-0.4,0.6-1.1,0.6-1.9c0-1.4-0.9-2-1.6-2C80.6,320,79.7,320.7,79.7,322z M81.3,342.4
		c-1.8,0-3.3,1.5-3.3,3.3c0,1.9,1.5,3.4,3.3,3.4c1.9,0,3.3-1.5,3.3-3.4C84.7,343.9,83.2,342.4,81.3,342.4z M81.3,374.4
		c13.3,0,20.8,2.5,20.8,2.5c0.1-6.7,0.1-10.5,3.9-9.9c-2.1-5.7,7-7.9,7-15.3c0-4.9-3.5-5.4-4.4-5.4c-3,0-2.6,2-5.1,2
		c-0.3,0-0.6-0.1-0.6,0.1c0,0.8,0.7,2.3,1.9,2.3c1.6,0,1.6-1.6,2.8-1.6c0.5,0,1.3,0.4,1.3,2c0,3.2-2,6.6-4.5,9.3
		c-0.6-0.8-1.3-1.3-2.3-1.3c-1.5,0-2.7,1.5-2.7,3.4c0,0.7,0.1,1.2,0.3,1.7c-0.8,0.5-1.5,0.7-2,0.7c-1.1,0-2.8-0.5-2.8-2.9
		c0-5.4,7.2-10,7.2-16.9c0-3.3-2.2-6.4-6.7-6.4c-4.8,0-3.9,4.4-8.1,4.4c-0.2,0-0.3,0-0.3,0.3c0,0.3,0.8,2.8,2.9,2.8
		c2.3,0,2.9-4,5.1-4c0.8,0,1.9,0.4,1.9,3.1c0,2.1-1,5.6-2.6,8.8c-0.6-0.5-1.3-0.9-2.1-0.9c-1.8,0-3.1,1.8-3.1,3.8
		c0,1.3,0.5,2.6,1.4,3.4c-1,1.4-2.1,2.5-3.6,2.5c-2.9,0-4.2-1.6-4.2-3.4c0-2,3.5-2.6,3.5-5.6c0-2.1-1.4-3.2-2.6-3.2
		c-1.4,0-2.1,0.9-2.3,0.9s-0.8-0.9-2.3-0.9c-1.3,0-2.6,1.1-2.6,3.2c0,3,3.5,3.8,3.5,5.6c0,1.8-1.3,3.4-4.2,3.4
		c-1.5,0-2.6-1.1-3.6-2.5c0.9-0.8,1.4-2.1,1.4-3.4c0-2.1-1.3-3.8-3.1-3.8c-0.8,0-1.5,0.4-2.1,0.9c-1.5-3.3-2.6-6.7-2.6-8.8
		c0-2.7,1.1-3.1,1.9-3.1c2.1,0,2.7,4,5.1,4c2.2,0,2.9-2.5,2.9-2.8c0-0.1-0.2-0.3-0.3-0.3c-4.2,0-3.3-4.4-8.1-4.4
		c-4.5,0-6.7,3.2-6.7,6.4c0,6.8,7.2,11.5,7.2,16.9c0,2.4-1.7,2.9-2.8,2.9c-0.6,0-1.2-0.3-2-0.7c0.2-0.6,0.3-1,0.3-1.7
		c0-1.9-1.3-3.4-2.7-3.4c-0.9,0-1.7,0.5-2.2,1.3c-2.4-2.7-4.5-6.1-4.5-9.3c0-1.6,0.7-2,1.3-2c1.1,0,1.2,1.6,2.8,1.6
		c1.2,0,1.9-1.5,1.9-2.3c0-0.3-0.3-0.1-0.6-0.1c-2.6,0-2.1-2-5.1-2c-1,0-4.4,0.6-4.4,5.4c0,7.4,9.1,9.6,7,15.3
		c3.9-0.6,3.8,3.2,3.9,9.9C60.5,376.9,68,374.4,81.3,374.4z M56.9,384.3c-3.6,0.8-6.3,1.6-7.4,1.9c0-1.6,0.6-3.1,2.1-3.4
		c0.2-0.1,0.2-0.3,0-0.4c-3.2-2.1-5,2-5,2.1c-1.1-0.1-2.9,0.3-2.9,1.8c0,4.6-10.6,7.2-13,7.6c4.3,1.6,6.2,7.1,6.2,7.1
		c3.1-3.1,6.8-5.9,7.7-5.9c0.8,0,1.1,1,1.2,1.6c0,0.2,0.2,0.3,0.3,0.1c1.7-2.4,0.8-3,0.7-3.8c-0.1-0.6,0.1-2.7,2.4-2.5v30.9
		l-1.3,0.3c-0.6,0.1-5.1-3.8-10.2-7.4c-5.2-3.6-8-1.5-13.9,1.8c-7.8,4.2-15.5,0.4-15.5,0.4c-6.6,4.7-8.9,18.5-8.9,18.5
		c-1.4,0.6-3.6,1.2-5.6,1.2c-5.1,0-6-3.1-6-4.9c0-7.9,9.9-11.2,9.9-18.9c0-1.9-0.9-9.5-10.3-9.5c-1.2,0-8.4,0-8.4,0
		c-3.6,0-4.4-2.6-4.9-3.5c-0.2-0.4-0.5-0.1-0.4,0.1c0.3,0.6-0.4,1.6-0.4,3.6c0,3.1,1.9,5,5.3,5c1.6,0,3.1-0.4,3.5-0.8
		c0.3-0.2,0.5,0.1,0.4,0.3c-1.5,1.8-1.6,5.1-1,5.8c0.2,0.2,0.4,0.1,0.4,0c0.9-3.3,3.9-6.4,8.2-6.4c5.1,0,5.1,4.4,5.1,5.4
		c0,6.3-11,10.9-11,19.6c0,8.8,9.3,10.6,14.6,9.3c-0.3,8.8-10.4,11.8-10.7,5.5c0-0.3-0.3-0.4-0.4,0c-1.3,3.1-0.8,5.9,3.2,6.7
		c0.3,0,0.2,0.2-0.1,0.4c-3.9,2.4-1.8,12.1-1.6,15c0.3,4.1-3.8,3.6-4.1,3.5c-0.2,0-0.4,0-0.1,0.4c2.9,3.6,6.5,0.3,6.5,0.3
		c2.7,0.9,1.1,3.1-0.8,4.4c-0.3,0.2-0.3,0.4,0.1,0.4c0.4,0.1,4.6,0.4,5.4-2.9c1.9,2.2,4.6,1.4,5.2,1.1c0.8-0.4,4.7-1.9,5.1,2.6
		c0,0.3,0.2,0.1,0.3-0.1c3-3.8-0.2-6-2-6.3c0.1-0.2,2.5-2.2,4.7,0.6c0.1,0.2,0.3,0.3,0.3-0.1c0.3-4.8-3.6-5.1-6.1-3.1
		c-0.1-0.5-0.9-3.1,2.8-3.1c0.1,0,0.3-0.1,0.1-0.3c-2.9-3.1-5.3-0.3-5.9,0.4c-1.3,1.5-4.5,0.9-4.9,0.9c1-16.5,15.5-10.6,17.5-18.6
		c0.1-0.4,0.3-0.3,0.3-0.1c0.5,2,5.4,2.2,6.3-1.6c0.1-0.3,0-0.4-0.1-0.3c-4.2,4.2-13.7-8.9-0.8-19.6c11-9,20.9-4,24.6-1
		c0.2,1.3-0.6,1.8-1.1,1.9c-0.2,0.1-0.3,0.2,0,0.4c1,0.4,2.5,0.3,3.2-0.7c2.3,1.7,0.3,3.8-0.6,4.3c-0.3,0.2-0.2,0.3,0,0.4
		c2.2,0.4,4-1.8,4-3.1l0.3,0.2v9.4c0,13.3,15.3,15.1,32.2,26.4c16.8-11.3,32.1-13.1,32.1-26.4v-9.4l0.4-0.2c0.1,1.3,1.8,3.5,4.1,3.1
		c0.2-0.1,0.3-0.2,0-0.4c-0.9-0.6-3-2.6-0.6-4.3c0.7,1,2.2,1.1,3.2,0.7c0.3-0.1,0.3-0.3,0-0.4c-0.5-0.1-1.3-0.6-1.1-1.9
		c3.8-3,13.6-8,24.6,1c12.9,10.6,3.4,23.7-0.8,19.6c-0.2-0.2-0.2,0-0.1,0.3c0.9,3.8,5.8,3.5,6.4,1.6c0-0.1,0.3-0.3,0.3,0.1
		c2,8,16.4,2.1,17.5,18.6c-0.3,0-3.6,0.6-4.9-0.9c-0.6-0.6-2.9-3.5-5.9-0.4c-0.2,0.2,0,0.3,0.1,0.3c3.8-0.1,3,2.6,2.8,3.1
		c-2.5-2.1-6.4-1.7-6.1,3.1c0,0.4,0.1,0.4,0.3,0.1c2.1-2.8,4.5-0.8,4.6-0.6c-1.7,0.3-4.9,2.6-2,6.3c0.1,0.1,0.3,0.4,0.3,0.1
		c0.4-4.4,4.3-3,5.1-2.6c0.6,0.3,3.3,1.1,5.1-1.1c0.8,3.4,5,3,5.4,2.9c0.3,0,0.3-0.2,0-0.4c-1.8-1.2-3.5-3.5-0.8-4.4
		c0,0,3.6,3.3,6.5-0.3c0.2-0.3,0.1-0.4-0.1-0.4c-0.3,0.1-4.4,0.6-4.1-3.5c0.2-2.9,2.3-12.6-1.6-15c-0.3-0.1-0.4-0.3-0.1-0.4
		c3.9-0.9,4.4-3.6,3.2-6.7c-0.1-0.4-0.4-0.3-0.4,0c-0.3,6.3-10.4,3.3-10.7-5.5c5.4,1.4,14.7-0.5,14.7-9.3c0-8.7-11.1-13.3-11.1-19.6
		c0-1,0-5.4,5.1-5.4c4.2,0,7.3,3.1,8.2,6.4c0,0.1,0.2,0.2,0.3,0c0.6-0.8,0.5-4-1-5.8c-0.1-0.1,0-0.5,0.3-0.3
		c0.5,0.3,1.9,0.8,3.5,0.8c3.4,0,5.3-1.9,5.3-5c0-2-0.7-2.9-0.4-3.6c0.1-0.3-0.3-0.5-0.4-0.1c-0.5,1-1.4,3.5-4.9,3.5
		c-0.1,0-7.3,0-8.4,0c-9.4,0-10.3,7.6-10.3,9.5c0,7.8,9.9,11.1,9.9,18.9c0,1.9-0.9,4.9-6,4.9c-2.1,0-4.3-0.6-5.6-1.2
		c0,0-2.3-13.8-9-18.5c0,0-7.8,3.8-15.5-0.4c-5.9-3.2-8.7-5.4-13.9-1.8c-5.2,3.6-9.7,7.4-10.2,7.4l-1.3-0.3v-30.9
		c2.4-0.3,2.5,1.9,2.4,2.5c-0.2,0.7-0.9,1.3,0.7,3.8c0.1,0.2,0.3,0.1,0.3-0.1c0-0.6,0.4-1.6,1.2-1.6c0.8,0,4.5,2.8,7.6,5.9
		c0,0,1.8-5.4,6.1-7.1c-2.5-0.4-13.1-3-13.1-7.6c0-1.5-1.7-1.9-2.9-1.8c0-0.1-1.8-4.3-5-2.1c-0.2,0.1-0.2,0.4,0.1,0.4
		c1.5,0.3,2,1.8,2.1,3.4c-3.1-1-16.3-4.6-31.9-4.6c-7.6,0-14.5,0.9-20.1,1.9v10.7h-4.4L56.9,384.3L56.9,384.3 M28.1,494.3
		c-1.2-0.5-1.9-1.2-1.9-2.8v-6.7c-1.9-0.6-7.1-2.6-17.6-2.6c-8.6,0-11.4,2-11.5,2.6l-2.3,12.7c0,0,3.5-3.2,16.1-2.4
		c15.1,1,30.7,9.9,30.7,0.4v-5.6C29.8,489.9,28.1,493.7,28.1,494.3z M121,489.9v5.6c0,9.5,15.7,0.6,30.8-0.3
		c12.6-0.8,16.1,2.4,16.1,2.4l-2.3-12.7c-0.1-0.7-2.8-2.7-11.5-2.7c-10.4,0-15.6,2-17.6,2.7v6.6c0,1.5-0.8,2.2-1.9,2.8
		C134.6,493.7,132.9,489.9,121,489.9z M81.3,484.1c24.4,0,49,1.3,52.2,4.9c0.3,0.3,0.4,0,0.4-0.3v-12.9c0-3.8-25.5-6-52.6-6
		s-52.7,2.2-52.7,6v12.9c0,0.2,0.1,0.5,0.3,0.3C32.3,485.5,57,484.1,81.3,484.1z M59.6,423.4l-2.5-0.6L57,423l-2.8-1.3
		c0,0,2.1,0,2.5,0c0.3,0,0.3-0.1,0.2-0.3c-1.1-1.2-2.2-2.2-2.2-2.2s1.1,0.5,2.8,1.1c0.2,0.1,0.2-0.1,0.2-0.2
		c-0.8-1.2-1.9-2.8-1.9-2.8s2.3,1.5,2.7,1.9c0.2,0.1,0.2,0,0.2-0.1c-0.6-1.5-1.3-3.3-1.3-3.3l2.5,2.4c0.1,0.1,0.2,0.1,0.2-0.1
		c-0.3-1.2-0.7-3.3-0.7-3.3l1.9,2.7c0.1,0.1,0.2,0.1,0.2-0.1c0-0.6,0.1-2.9,0.1-2.9s0.8,1.8,1.1,2.7c0.1,0.2,0.2,0.2,0.3-0.1
		c0.1-0.3,1-2.3,1-2.3l0.1,3.1l-0.4,0.1l-0.5,3.7c3.6-0.8,8.2-7.1,11.8-7.1c4.2,0,5.7,4.9,13.4,2.4c1.9,2.9,2.7,5.4,3.4,8.8
		c3,2.8,7.2,1.9,7.2-1.1c0-4-4.4-4.7-4.4-9c0-1.9,1.3-4.6,4.8-4.6c1.9,0,4.7,0.8,6.3,0.8c1.9,0,2.3-1.3,2.5-1.9
		c0.2-0.4,0.7-0.3,0.6,0c0,0.4,0.2,1,0.2,1.9c0,2.6-3.8,3-4.3,2.6c-0.2-0.1-0.3,0.1-0.2,0.2c0.6,0.5,0.5,2.1-0.2,3.1
		c-0.1,0.1-0.2,0.1-0.2,0c-0.4-1.9-2.7-4.3-4.6-4.3c-0.7,0-2.2,0.4-2.2,2.1c0,2.4,4.8,4.6,4.8,9.4c0,5.1-5.1,6.4-10.2,5.1
		c0.2,4.9,7.4,7.7,7.6,4.3c0-0.3,0.2-0.1,0.2,0c1.1,1.5,0.6,2.6-0.8,3.2c1.3,0.6,1.5,3.1,1.9,4.6c0.6,2.3,2.9,1,3.1,1
		c0.2-0.1,0.2,0,0.1,0.2c-0.9,2.3-3.3,1.4-3.3,1.4c-1.3,0.9,0.2,1.7,1.4,2.1c0.2,0.1,0.2,0.1,0.1,0.3c-0.9,0.3-2.7,0.9-3.5-0.6
		c-0.7,1.6-2,1.5-2.5,1.5c-1,0-1.5,1-1.4,2.3c0,0.1,0,0.1-0.2,0.1c-2.2-1.5-1-3.2-0.1-3.7c-0.2-0.1-1.7-0.8-2.3,1
		c-0.1,0.1-0.2,0.1-0.2,0c-0.9-2.6,1.2-3.3,2.7-2.7c-0.1-0.3-0.9-1.6-2.9-1.2c-0.1,0.1-0.2,0-0.1-0.1c0.3-0.8,1.3-1.9,3.1-0.8
		c0.9,0.6,2.6-0.3,2.7-0.4c-3.3-6.4-9.5-1-11-6.1c-0.1-0.1-0.2-0.2-0.3,0.1c-0.3,1-3.1,1.2-3.6-1c-0.1-0.1,0-0.2,0.2-0.1
		c0.4,0.4,1.3,0.8,2.4-0.9c0.7-1.1,0.8-2.6,0.8-3.5c0-3.9-3.9-10.5-10-10.5c-3.9,0-8,1.5-11.1,3.8l2.8,0.6c-0.2,2.9-3.1,4.6-5.6,3.9
		l0.5-3.3c-0.5,0.1-1.5,0.5-2.2,1.4c-0.1,0.1-0.2,0.1-0.2-0.1c-0.5-1.9,1-2.9,1.5-3c0.1-0.1,0.1-0.1-0.1-0.1c-1.4-0.1-2.2,1-2.4,1.3
		c-0.1,0-0.1,0-0.1,0C59.2,425,59,424,59.6,423.4z M68.2,445.8c-1.1,1.3-2.1,0-3.5,0c-1.3,0-1.6,1.2-1.6,1.6c0,0.1,0,0.1-0.1,0.1
		c-1.5-2.1,0.2-3.3,1.2-3.4c-0.2-0.1-1.7-1.1-2.6,0.3c0,0.1-0.2,0.1-0.2-0.1c0-2.6,2-2.8,3.4-1.6c0.3-1-0.4-1.7-1.5-1.7
		c-0.2,0-0.2-0.1-0.1-0.1c0.5-0.5,0.9-0.7,1.4-0.7c1.5,0,1.6,1.9,2.6,1.9c1.4,0,3.5-1.9,3.6-2.1c-0.1-0.1-1.4-3.8-1.1-6
		c0-0.1-0.1-0.1-0.1,0c-0.7,0.4-2.4,0.3-2.4-1.8c0-0.1,0-0.2,0.2-0.1c0.7,1.1,2-0.1,2.6-0.8c0.6-0.8,4.3-6,9-6c1,0,2.4,0.6,3.5,1.3
		c-1.6,2,0,3.9,1.2,3.7c0.2-0.1,0.2,0.1,0.1,0.1c-6.3,2.4-9.1,3.3-9.1,8.6c0,2.8,1,4.3,2.6,3.9c0.1-0.1,0.2,0,0.1,0.1
		c-0.6,0.7-1.3,1-1.8,1c-1.3,0-1.5-0.7-2.3-0.7c-0.7,0-3.1,1.4-3.1,2.6c0,0.4,0.3,1.1,1.1,1.5c0.1,0.1,0,0.1,0,0.1
		C70.4,447.3,68.6,447.5,68.2,445.8z M84.7,394.5c-1.9-0.1-3.3,0.3-3.1,1C82.5,396.4,83.8,396.4,84.7,394.5z M77.5,399.3
		c1.4-0.3,2.9-0.2,3.1-0.1c0.2,0,0.2,0.4-0.1,0.4c-2.9,0.4-3.1,1.7-4.9,1.7c-1.2,0-2.5-1.3-2-3.1c0.1-0.3,0.2-0.3,0.3,0
		C74.1,399.1,75.2,400,77.5,399.3z M39.8,463.6c1.9,2.4,3.8,0.1,6.3,0.1c1.3,0,2.8,0.4,3,2.9c0,0.1,0.1,0.1,0.2,0
		c2.7-3.8-0.4-5.9-2.2-6.2c0.4-0.4,3.1-2,4.8,0.4c0.1,0.1,0.3,0.1,0.3-0.1c0-4.7-3.5-5.1-6.1-3c-0.5-1.9,0.9-3,2.7-3
		c0.2,0,0.3-0.2,0.2-0.3c-3.2-3.4-5.6,0.9-6.1,1.5c-1.3,1.7-5.8-1.5-7.6-3.4c0,0,4-4.2,4-8.1c0-0.3-0.1-0.5-0.1-0.7
		c0-0.1,0.1-0.1,0.2-0.1c0.4,0.3,1,0.4,1.5,0.4c0.9,0,2.7-0.3,2.7-3.5c0-0.3-0.1-0.3-0.2-0.1c-0.5,0.7-1,0.9-1.4,0.9
		c-3.3,0-10-10.8-18-10.8c-2.1,0-6,1.5-8,3.7c0.9,0.5,1.1,1.8,1.1,2.6c-0.1,1.3-1.3,2.1-2.4,2.4c-0.2,0.1-0.2,0.2,0,0.3
		c4.1,1.5,11.4,4.3,13,5.8c2,1.7,1.6,4.9,0.5,9.4c-1.1,4.3-3.4,3.7-4.4,3.6c-0.1,0-0.1,0.1-0.1,0.1c1.1,1.3,2.3,1.8,3.4,1.8
		c2.1,0,2.9-1.3,3.9-1.3c1.8,0,5.7,2.6,5.7,4.6c0,1.1-0.8,2.1-2,2.9c0,0.1,0,0.1,0.1,0.1C35.6,466.5,39.1,466.8,39.8,463.6z
		 M128,466.4c0.1,0,0.1-0.1,0-0.2c-1.1-0.8-2-1.7-2-2.8c0-2,3.8-4.6,5.7-4.6c1.1,0,1.8,1.3,3.9,1.3c1.1,0,2.4-0.4,3.4-1.8
		c0.1-0.1,0-0.2-0.1-0.1c-0.8,0.1-3.3,0.7-4.4-3.5c-1.1-4.4-1.6-7.6,0.5-9.4c1.7-1.5,9-4.2,13.1-5.8c0.2-0.1,0.2-0.3,0-0.3
		c-1.1-0.3-2.2-1-2.4-2.4c-0.1-0.8,0.1-2,1-2.6c-2-2.1-5.9-3.7-8.1-3.7c-8,0-14.8,10.8-18,10.8c-0.4,0-0.9-0.2-1.4-0.9
		c-0.1-0.1-0.2-0.1-0.2,0.1c0,3.3,1.8,3.6,2.6,3.6c0.5,0,1.1-0.2,1.5-0.4c0.1-0.1,0.1,0,0.1,0.1c0,0.1,0,0.4,0,0.7c0,3.8,4,8,4,8
		c-1.8,1.9-6.3,5.1-7.6,3.4c-0.6-0.7-2.9-5-6.1-1.5c-0.1,0.1-0.1,0.3,0.2,0.3c1.8,0,3.2,1.2,2.7,3c-2.6-2-6.2-1.7-6.2,3.1
		c0,0.2,0.2,0.3,0.3,0.1c1.7-2.4,4.4-0.8,4.8-0.4c-1.8,0.3-4.9,2.4-2.2,6.2c0.1,0.1,0.2,0.1,0.2,0c0.3-2.4,1.8-2.9,3-2.9
		c2.5,0,4.3,2.3,6.3-0.1C123.6,466.8,127.1,466.5,128,466.4z M63.4,404c-0.2,0.4-1.1,0-1.4-0.1c0-0.1-0.1,0,0,0
		c0.2,0.4,1,1.8,2.2,1.8c0.6,0,1.4-0.3,1.6-0.7c0,0,4.7,1.5,7,2.1c-0.9,1.2-1.5,2.7-1.6,4.2c-1.9-1.2-9.4-5.2-9.4-5.2l-2.3,3.2
		c-0.4,0.5-2.3-0.8-1.9-1.3l1.8-2.5c-0.6-0.6-2-0.3-2.4-0.1c0,0-0.1,0,0-0.1c0.2-0.5,1.1-2,3.3-1.3c0-1.3-2-0.9-2.5-0.8
		c0,0-0.1,0,0-0.1c0.6-0.6,2.2-1.9,4-0.8l0.8-1.1l-1.6-1.7l1-1.4l1.2,1.5l8.6-11.9c0.2-0.3,1.9-0.8,2.6-0.9c0.1,0.6,0.2,2.5-0.1,2.8
		l-8.5,12l1.8,0.6l-1,1.4l-2.1-1L63.4,404z M93.8,402.1c0,1.1,0.6,2.7,2.1,2.2c0-0.1,0.2,0,0.1,0.1c-0.2,1.2-2.4,2.3-3.3,0.9
		c-0.9,1.9-0.6,3.6,1.2,4.6c0.1,0,0.1,0.2,0,0.3c-1.1,0.8-2.9,0.6-3.7-1c-1.5,1.1-1.3,3.6-0.4,4.5c0,0-4.3,2.5-8.2,0.8
		c-2.6-1.3-4.7-2.9-8.1-2.6c0.5-4.7,2.8-5.9,7.1-6.6c3.4-0.5,3.8-2.1,3.4-3.3c-1.1-0.3-3.3,0.8-3.3,0.8c-0.4-0.6,0.2-1.3,0.2-1.3
		c-0.2-0.3-0.3-1.1-0.3-1.1c2.4,0,2.8-0.5,2.8-0.5c0.4-2.5-2.1-2.8-4-1.4c-0.9-0.8-0.8-1.9-0.8-1.9c-0.2-0.1-0.5-0.6-0.5-0.8
		c0-0.6,2.9-2.2,3.6-2.4c0.2-0.9,1.2-2,4.3-1.7c0.3-0.8-0.3-3.8-0.6-4.5c-0.1-0.2,0.1-0.3,0.3-0.2c1,0.6,2.1,3.1,2.8,3.2
		c0,0,3.4-1.8,3.5-1.7c0.2,0.1,0.6,3.9,0.6,3.9c0.5,0.6,3.1,0,4.3,0.5c0.3,0.1,0.3,0.4,0,0.4c-0.9,0.1-3.6,1.3-4.1,2.1
		C94.5,397.7,93.8,401.1,93.8,402.1z"/>
</g>
<g id="Isolatiemodus">
	<g>
		<path d="M265.6,393.3c3-0.8,4.5-2.4,4.5-5.9v-38.1l-4.9-1.5v-1.7c4.9-0.8,9.3-1.1,15.4-1.1c11.7,0,17.3,4.6,17.3,13.1
			c0,7.6-4.3,12.7-11.2,14.8l11,14.6c1.9,2.5,4.4,4.4,7.2,5.3v1.5c-1.5,1-3.4,1.7-5.9,1.7c-3.4,0-5.5-1.3-8.3-5.5l-10.3-15.5h-3.7
			v16.3l4.9,1.3v1.7c-2.5,0.8-5.4,1.3-8.9,1.3c-2.7,0-5-0.3-7.3-0.8C265.6,394.7,265.6,393.3,265.6,393.3z M279.9,371.3
			c6,0,11-4,11-12c0-6.4-4-10-10.7-10c-1,0-2.4,0.1-3.4,0.3v21.7H279.9z"/>
		<path d="M308.4,393.5c2.1-0.8,4.1-2.3,4.1-4.2v-26.2l-4.9-2.1v-1.7c3.5-1,7.1-1.4,9.2-1.4h2.5l-0.4,4.2v29.5l4.4,1.2v1.5
			c-2.6,1-5.1,1.3-9,1.3c-1.8,0-4-0.1-5.8-0.7C308.4,394.8,308.4,393.5,308.4,393.5z M311.7,346.4c0-2.4,1.7-4.6,4.4-4.6
			c2.1,0,4,1.7,4,4.2c0,2.7-1.9,4.8-4.4,4.8C313.5,350.8,311.7,348.9,311.7,346.4z"/>
		<path d="M333.8,363.1l-5-2.1v-1.7c3.6-1,7.1-1.4,9.3-1.4h2.5l-0.4,4.3V397c0,12.7-3.8,16.7-8.8,16.7c-1.7,0-3.4-0.6-4.4-1.9v-1.3
			c3.4,0,6.7-3.9,6.7-11.8V363.1z M332.9,346.4c0-2.4,1.7-4.6,4.4-4.6c2.1,0,4,1.7,4,4.2c0,2.7-1.9,4.8-4.4,4.8
			C334.7,350.8,332.9,348.9,332.9,346.4z"/>
		<path d="M350.3,393.5c2.1-0.8,4.2-2.3,4.2-4.2v-45l-5.1-2.1v-1.7c3.6-1,7.1-1.4,9.3-1.4h2.6l-0.4,4.4v31l4.3-3.7
			c4.2-3.5,8-8.9,8-12.4c1.4-0.4,2.6-0.6,4.1-0.6c1.2,0,2.1,0.3,3.1,0.7c-0.1,3.3-3.5,8.6-10.5,13.6l-2.7,2l11.9,14.5
			c2.2,2.6,4.1,3.7,5.8,3.7v1.6c-1.7,1.2-3.5,1.7-5.8,1.7c-2.1,0-4-1-5.5-2.9L361,376v15.6l4,1.3v1.5c-2.9,1-5.1,1.3-8.8,1.3
			c-1.8,0-4-0.1-5.8-0.7v-1.4H350.3z"/>
		<path d="M386.9,386.4c3.5,3.3,6.8,4.9,11,4.9c4.4,0,6.6-2.1,6.6-4.8s-1.5-4.4-6.7-6.6l-3.8-1.6c-4.5-2-7-5.2-7-9.6
			c0-6.1,5.4-11.4,13.5-11.4c6.2,0,8.7,1.9,8.7,4.8c0,1.1-0.1,2.1-0.4,3.3c-2.5-1.7-5.9-3-8.8-3c-4.9,0-7.3,2.1-7.3,4.8
			c0,2.8,1.4,4.4,6,6.1l4.2,1.7c5.6,2.1,7.7,5,7.7,9.6c0,6-5.8,11.4-14.4,11.4c-6.8,0-9.9-2.1-9.9-6.4
			C386.3,388.5,386.5,387.3,386.9,386.4z"/>
		<path d="M434.2,357.3c9.6,0,16.9,7.1,16.9,17.9c0,12.8-8.9,20.9-18.1,20.9c-9.4,0-17-6.6-17-17.9
			C416,365.4,424.7,357.3,434.2,357.3z M433.4,391.5c5.2,0,10.6-5,10.6-15.6c0-9.1-4.9-14.1-10.4-14.1c-5.3,0-10.6,5.4-10.6,15.6
			C423,386.8,427.9,391.5,433.4,391.5z"/>
		<path d="M456.3,362l-3.2-2.3v-1.9h14.8v1.9l-4.4,1.9l8.4,24.5h0.1l8.6-24.4l-4.4-2.1v-1.9h12v1.9l-2.2,1.8l-13.8,34.2l-2.6,0.1
			L456.3,362z"/>
		<path d="M506.3,357.4c8.3,0,13.4,5.6,13.4,14.5c0,1.5,0,3-0.1,5h-22.9c0,8.7,5.1,13.7,11.5,13.7c3.8,0,8-1.3,11-3.4
			c0.1,0.4,0.3,1.3,0.3,2c0,3.5-5.1,6.8-13.3,6.8c-8.9,0-16.1-6.9-16.1-17.8C490.1,364.7,498.3,357.4,506.3,357.4z M513.6,372.8
			c0-7.6-3.3-11.3-7.8-11.3c-4.3,0-8.8,5.1-8.8,11.3H513.6z"/>
		<path d="M526.5,393.5c2-0.8,4.1-2.3,4.1-4.2v-26.2l-5-2.1v-1.7c3.5-1,7-1.4,9.3-1.4h1.9v5.4h0l2.2-2.4c2.1-2.3,4.2-3.4,6.8-3.4
			c2.7,0,4,1.2,4,3.4c0,1.5-0.5,3.2-1.3,4.6c-1.5-1.1-3.2-1.8-4.8-1.8c-2.4,0-4.7,1.1-6.8,3.2v24.6l5.4,1.2v1.5
			c-2.7,1-5.2,1.3-9.6,1.3c-2.3,0-4.4-0.1-6.2-0.7L526.5,393.5L526.5,393.5z"/>
		<path d="M552.9,393.5c2.1-0.8,4.1-2.3,4.1-4.2v-45l-5.1-2.1v-1.7c3.5-1,6.7-1.4,9.3-1.4h2.5l-0.4,4.4V362
			c2.8-2.7,6.3-4.3,11.3-4.3c6.6,0,10.8,4.1,10.8,12.1v21.7l4,1.2v1.5c-2.2,0.8-4.9,1.3-8.2,1.3c-1.5,0-3.5-0.1-4.9-0.7v-1.3
			c1.8-0.8,2.8-2.3,2.8-5.1v-14.8c0-7.6-3.1-10.5-7.9-10.5c-3,0-6,1.1-7.8,2.4v26.1l4.3,1.2v1.5c-2.6,1-5,1.3-9,1.3
			c-1.8,0-4-0.2-5.8-0.7L552.9,393.5L552.9,393.5z"/>
		<path d="M611.6,357.4c8.3,0,13.4,5.6,13.4,14.5c0,1.5,0,3-0.1,5H602c0,8.7,5,13.7,11.4,13.7c3.8,0,8-1.3,11-3.4
			c0.2,0.4,0.3,1.3,0.3,2c0,3.5-5.1,6.8-13.3,6.8c-8.9,0-16-6.9-16-17.8C595.3,364.7,603.5,357.4,611.6,357.4z M618.7,372.8
			c0-7.6-3.2-11.3-7.9-11.3c-4.3,0-8.8,5.1-8.8,11.3H618.7z"/>
		<path d="M631.6,393.5c2.1-0.8,4.1-2.3,4.1-4.2v-26.2l-5-2.1v-1.7c3.5-1,7.1-1.4,9.3-1.4h2.5l-0.4,4.2v29.5l4.3,1.2v1.5
			c-2.7,1-5,1.3-9,1.3c-1.8,0-4-0.1-5.8-0.7L631.6,393.5L631.6,393.5z M634.8,346.4c0-2.4,1.7-4.6,4.4-4.6c2.1,0,4,1.7,4,4.2
			c0,2.7-1.8,4.8-4.3,4.8C636.6,350.8,634.8,348.9,634.8,346.4z"/>
		<path d="M671,357.5c1.8,0,4.1,0.3,5.4,0.5v-13.6l-5.3-2.1v-1.7c3.6-1,7.4-1.4,9.6-1.4h2.5l-0.4,4.4v44.4c0.5,1.6,1.4,3.2,2.9,4.5
			c-1.5,1.4-3.2,2.5-5.4,3.7c-1.6-1.3-3-3-3.7-4.6c-2.5,2.6-6.8,4.4-9.9,4.4c-7.9,0-14.1-6.5-14.1-16.8
			C652.4,365.1,660.9,357.5,671,357.5z M676.4,388.3v-25.6c-1.3-0.5-3.6-0.9-5.7-0.9c-6.6,0-11.5,5.2-11.5,16c0,8.4,4.4,13,9.3,13
			C671.5,390.8,674.6,389.8,676.4,388.3z"/>
	</g>
</g>
</svg>
